<?xml version="1.0" encoding="utf-8"?>
<!-- Generator: Adobe Illustrator 18.1.1, SVG Export Plug-In . SVG Version: 6.00 Build 0)  -->
<svg version="1.1" id="Layer_1" xmlns="http://www.w3.org/2000/svg" xmlns:xlink="http://www.w3.org/1999/xlink" x="0px" y="0px"
	 viewBox="0 0 800 600" enable-background="new 0 0 800 600" xml:space="preserve">
<g>
	<path fill="#DBEAFE" d="M223.6,98.8c-17-5.9-35.4-9-54.4-9C76.7,89.8,1.6,164.9,1.6,257.4c0,92.6,75,167.6,167.6,167.6
		c29.5,0,57.1-7.6,81.2-21c34.7,13.2,76.1,21,120.6,21c51,0,97.9-10.1,135.3-27.1c16.8,9.2,36,14.4,56.5,14.4
		c65,0,117.6-52.7,117.6-117.6c0-64.9-51.8-117.6-116.8-117.6c-8.2,0-17.8,0.9-23.1,2.4v-1.9C540.5,85.1,466.2,10,373.7,10
		c-64,0-120.5,35.9-147.1,88.7v0.1c-5.3,0.9-2.7,1.9-3.3,2.8C223.7,100.7,223.1,99.7,223.6,98.8z"/>
	<g>
		<path fill="#FFFFFF" stroke="#5B5B5B" stroke-miterlimit="10" d="M734.1,417.1H604.5c-1.6,0-2.8-1.3-2.8-2.8V245.6
			c0-1.6,1.3-2.8,2.8-2.8h129.7c1.6,0,2.8,1.3,2.8,2.8v168.7C737,415.9,735.7,417.1,734.1,417.1z"/>
		<line fill="none" stroke="#5B5B5B" stroke-miterlimit="10" x1="612" y1="265.5" x2="661" y2="265.5"/>
		<line fill="none" stroke="#5B5B5B" stroke-miterlimit="10" x1="612" y1="276.5" x2="708" y2="276.5"/>
		<line fill="none" stroke="#5B5B5B" stroke-miterlimit="10" x1="612" y1="286.5" x2="708" y2="286.5"/>
		<line fill="none" stroke="#5B5B5B" stroke-miterlimit="10" x1="612" y1="302.5" x2="708" y2="302.5"/>
		<line fill="none" stroke="#5B5B5B" stroke-miterlimit="10" x1="612" y1="312.5" x2="682" y2="312.5"/>
		<line fill="none" stroke="#5B5B5B" stroke-miterlimit="10" x1="612" y1="338.5" x2="718" y2="338.5"/>
		<line fill="none" stroke="#5B5B5B" stroke-miterlimit="10" x1="612" y1="354.5" x2="671" y2="354.5"/>
		<line fill="none" stroke="#5B5B5B" stroke-miterlimit="10" x1="612" y1="366.5" x2="671" y2="366.5"/>
		<line fill="none" stroke="#5B5B5B" stroke-miterlimit="10" x1="612" y1="382.5" x2="708" y2="382.5"/>
		<line fill="none" stroke="#5B5B5B" stroke-miterlimit="10" x1="612" y1="398.5" x2="638" y2="398.5"/>
	</g>
	<g>
		<path fill="#FFFFFF" stroke="#5B5B5B" stroke-miterlimit="10" d="M765,430.8h-86.6c-1.6,0-2.8-1.3-2.8-2.8V314.7
			c0-1.6,1.3-2.8,2.8-2.8H765c1.6,0,2.8,1.3,2.8,2.8V428C767.9,429.6,766.6,430.8,765,430.8z"/>
		<line fill="none" stroke="#5B5B5B" stroke-miterlimit="10" x1="682" y1="323.5" x2="713" y2="323.5"/>
		<line fill="none" stroke="#5B5B5B" stroke-miterlimit="10" x1="682" y1="333.5" x2="745" y2="333.5"/>
		<line fill="none" stroke="#5B5B5B" stroke-miterlimit="10" x1="682" y1="349.5" x2="745" y2="349.5"/>
		<line fill="none" stroke="#5B5B5B" stroke-miterlimit="10" x1="682" y1="359.5" x2="729" y2="359.5"/>
		<line fill="none" stroke="#5B5B5B" stroke-miterlimit="10" x1="682" y1="377.5" x2="755" y2="377.5"/>
		<line fill="none" stroke="#5B5B5B" stroke-miterlimit="10" x1="682" y1="392.5" x2="718" y2="392.5"/>
		<line fill="none" stroke="#5B5B5B" stroke-miterlimit="10" x1="682" y1="403.5" x2="745" y2="403.5"/>
		<line fill="none" stroke="#5B5B5B" stroke-miterlimit="10" x1="682" y1="419.5" x2="703" y2="419.5"/>
	</g>
	<polygon fill="#DC2626" points="804.7,449.4 804.3,451.1 782.5,451.1 765.5,434.1 748.4,451.1 726.7,451.1 726.3,449.4 
		754.2,420.8 726.7,392.6 749.2,392.6 765.5,408.8 781.7,392.6 804.3,392.6 776.8,420.8 	"/>
	<g>
		<text transform="matrix(1 0 0 1 1.6044 587.8905)" fill="#D97706" font-family="'Candara'" font-size="109.9296">NO DATA FOUND</text>
	</g>
	<line fill="none" stroke="#DBEAFE" stroke-miterlimit="10" x1="0.5" y1="480.4" x2="803.8" y2="480.4"/>
</g>
</svg>
